<svg width="23" height="24" viewBox="0 0 23 24" fill="none" xmlns="http://www.w3.org/2000/svg">
<path fill-rule="evenodd" clip-rule="evenodd" d="M11.204 4.66302L11.2118 4.65896L11.22 4.66319L15.3809 7.15972L16.8177 8.02538V18.3308C16.8177 18.8849 16.8162 19.1881 16.7984 19.406L16.7963 19.4306L16.7716 19.4328C16.5538 19.4506 16.2506 19.452 15.6965 19.452H6.72714C6.17305 19.452 5.86986 19.4506 5.652 19.4328L5.62737 19.4306L5.62523 19.406C5.60743 19.1881 5.60597 18.8849 5.60597 18.3308V8.0254L7.03749 7.16292L11.204 4.66302ZM6.07471 5.56143L1.38808 8.37341C0.945608 8.63889 0.802131 9.2128 1.06761 9.65527C1.33309 10.0977 1.907 10.2412 2.34947 9.97573L3.73736 9.143V18.3308C3.73736 19.3774 3.73736 19.9006 3.94103 20.3003C4.12018 20.6519 4.40604 20.9378 4.75764 21.117C5.15736 21.3206 5.68062 21.3206 6.72714 21.3206H15.6965C16.743 21.3206 17.2663 21.3206 17.666 21.117C18.0176 20.9378 18.3034 20.6519 18.4826 20.3003C18.6863 19.9006 18.6863 19.3774 18.6863 18.3308V9.14297L20.0742 9.97573C20.5167 10.2412 21.0906 10.0977 21.3561 9.65527C21.6215 9.2128 21.4781 8.63889 21.0356 8.37341L16.3436 5.5582L12.7547 3.39595C12.4938 3.23874 12.2936 3.11811 12.1239 3.02739C12.0843 3.00524 12.0441 2.98463 12.0033 2.96558C11.8621 2.89666 11.7397 2.85079 11.6139 2.82308C11.349 2.7647 11.0746 2.7647 10.8097 2.82308C10.6836 2.85087 10.5609 2.89691 10.4192 2.96612C10.3792 2.98486 10.3397 3.0051 10.3008 3.02683C10.1309 3.1176 9.93036 3.23842 9.6689 3.39595L6.07471 5.56143Z" fill="#D1D1D6"/>
<path fill-rule="evenodd" clip-rule="evenodd" d="M12.1459 19.4523V15.715C12.1459 15.199 11.7276 14.7807 11.2116 14.7807C10.6956 14.7807 10.2773 15.199 10.2773 15.715V19.4523H12.1459ZM11.2116 12.9121C9.6636 12.9121 8.40869 14.167 8.40869 15.715V21.3209H14.0145V15.715C14.0145 14.167 12.7596 12.9121 11.2116 12.9121Z" fill="#D1D1D6"/>
</svg>
