<svg width="23" height="24" viewBox="0 0 23 24" fill="none" xmlns="http://www.w3.org/2000/svg">
<path fill-rule="evenodd" clip-rule="evenodd" d="M18.6862 5.46676H3.73725C3.22124 5.46676 2.80294 5.88506 2.80294 6.40106V17.6127C2.80294 18.1287 3.22124 18.547 3.73725 18.547H18.6862C19.2022 18.547 19.6205 18.1287 19.6205 17.6127V6.40106C19.6205 5.88506 19.2022 5.46676 18.6862 5.46676ZM3.73725 3.59814C2.18924 3.59814 0.934326 4.85305 0.934326 6.40106V17.6127C0.934326 19.1608 2.18924 20.4157 3.73725 20.4157H18.6862C20.2342 20.4157 21.4891 19.1608 21.4891 17.6127V6.40106C21.4891 4.85305 20.2342 3.59814 18.6862 3.59814H3.73725Z" fill="#D1D1D6"/>
<path fill-rule="evenodd" clip-rule="evenodd" d="M4.88821 7.67165C5.21854 7.27525 5.80768 7.22169 6.20409 7.55203L10.6137 11.2267C10.9602 11.5154 11.4634 11.5154 11.8099 11.2267L16.2195 7.55203C16.6159 7.22169 17.2051 7.27525 17.5354 7.67165C17.8657 8.06806 17.8122 8.6572 17.4158 8.98753L13.0062 12.6622C11.9667 13.5284 10.4569 13.5284 9.41742 12.6622L5.00783 8.98753C4.61143 8.6572 4.55787 8.06806 4.88821 7.67165Z" fill="#D1D1D6"/>
</svg>
