<svg width="23" height="24" viewBox="0 0 23 24" fill="none" xmlns="http://www.w3.org/2000/svg">
<g clip-path="url(#clip0_6_53)">
<path fill-rule="evenodd" clip-rule="evenodd" d="M4.34235 3.12835C5.54847 1.92223 7.54322 2.064 8.56665 3.42857L10.2655 5.69367C11.1024 6.80956 10.9914 8.37105 10.0051 9.35738L8.75261 10.6099C8.87398 10.9258 9.27357 11.6192 10.4904 12.836C11.7073 14.0528 12.4006 14.4524 12.7165 14.5738L13.969 13.3213C14.9554 12.335 16.5168 12.224 17.6327 13.0609L19.8978 14.7598C21.2624 15.7832 21.4042 17.7779 20.1981 18.9841C19.8059 19.3762 19.7396 19.4425 19.0852 20.0969C18.4183 20.7639 17.0022 21.3872 15.5685 21.4495C13.3249 21.5471 10.2774 20.5509 6.52649 16.7999C2.77555 13.049 1.77933 10.0015 1.87688 7.75792C1.93114 6.50987 2.32794 5.13912 3.23471 4.24643C3.88387 3.58683 3.96829 3.50241 4.34235 3.12835ZM3.74373 7.83909C3.67611 9.39428 4.33153 11.9624 7.8478 15.4786C11.3641 18.9949 13.9321 19.6503 15.4873 19.5827C16.9391 19.5196 17.7179 18.8181 17.7639 18.7756L18.8767 17.6628C19.2788 17.2607 19.2315 16.5958 18.7767 16.2547L16.5116 14.5558C16.1396 14.2769 15.6191 14.3138 15.2903 14.6426C14.795 15.138 14.4568 15.4811 13.7949 16.1405C12.42 17.5103 10.0664 15.0546 9.16911 14.1573C8.3445 13.3327 5.83154 10.9044 7.18455 9.53532C7.18723 9.53264 7.55166 9.16821 8.68379 8.03607C9.01257 7.7073 9.04956 7.1868 8.77058 6.81483L7.07176 4.54973C6.73062 4.09488 6.0657 4.04762 5.66366 4.44966C5.29362 4.8197 4.87485 5.23847 4.55192 5.56364C3.88728 6.23287 3.7793 7.02101 3.74373 7.83909Z" fill="#D1D1D6"/>
</g>
<defs>
<clipPath id="clip0_6_53">
<rect width="22.4234" height="22.4234" fill="white" transform="translate(0 0.930664)"/>
</clipPath>
</defs>
</svg>
